<?xml version="1.0" ?><svg width="30px" height="30px" id="Layer_1" style="enable-background:new 0 0 960 560;" version="1.1" viewBox="0 0 960 560" xml:space="preserve" xmlns="http://www.w3.org/2000/svg" xmlns:xlink="http://www.w3.org/1999/xlink"><style type="text/css">
	.st0{fill:#00ACED;}
	.st1{fill:#FFFFFF;}
</style><path class="st0" d="M707.6,492.4H306.7c-6.6,0-12-5.4-12-12V79.6c0-6.6,5.4-12,12-12h400.8c6.6,0,12,5.4,12,12v400.8  C719.6,487,714.2,492.4,707.6,492.4z" id="XMLID_1_"/><g id="XMLID_2_"><path class="st1" d="M611.7,282.1c-0.8,31.8-22.5,75.4-45,101.2c-51.3,59-177.3,59.1-241.9,14   c-0.8-0.6-1.6-1.2-2.4-1.7c7.2,1.2,14.7,1.7,22.2,1.7c34.2,0,65.6-12.2,90.1-32.4c0.3,0,0.6,0,0.9,0c36.6,0,67.1-26.3,73.5-61   C541.4,318.8,588.2,308.5,611.7,282.1z" id="XMLID_11_"/><circle class="st1" cx="577.5" cy="205.3" id="XMLID_5_" r="74.8"/><path class="st1" d="M618.1,334.2c-24.6,32.5-40.6,53.9-81.6,73.1c-37.4,17.5-46.7-89.8-46.7-131.1   S609,138.8,638.3,167.9C671.6,201.1,643.7,300.4,618.1,334.2z" id="XMLID_4_"/><path class="st1" d="M510.4,289.9c0,4.8-0.4,9.4-1.3,13.9c-6.5,35.2-36.9,62-73.5,62c-0.3,0-0.6,0.1-0.9,0.1h-0.1   c-0.6,0-1.2-0.1-1.8-0.1c-0.5,0-1-0.1-1.5-0.1c-0.3,0-0.6,0-0.9-0.1c-0.4,0-0.9-0.1-1.3-0.1c-0.7-0.1-1.4-0.1-2-0.2   s-1.2-0.1-1.8-0.2c-0.6-0.1-1.2-0.2-1.9-0.3c-0.5-0.1-1-0.2-1.4-0.3c-0.3,0-0.6-0.1-0.8-0.2c-0.5-0.1-0.9-0.2-1.4-0.3   c-0.6-0.1-1.2-0.3-1.7-0.4H418c-0.4-0.1-0.8-0.2-1.2-0.3c-0.2-0.1-0.5-0.1-0.7-0.2c-0.1,0-0.1,0-0.2-0.1c-1-0.3-2.1-0.6-3.1-0.9   c-0.3-0.1-0.6-0.2-1-0.3c-0.5-0.2-0.9-0.3-1.4-0.5c-1.4-0.5-2.8-1-4.1-1.6c-0.4-0.2-0.7-0.3-1.1-0.5c-0.1-0.1-0.3-0.1-0.4-0.2   c-0.3-0.1-0.6-0.3-0.8-0.4c-0.7-0.3-1.3-0.6-2-1c-0.3-0.2-0.7-0.3-1-0.5c-0.8-0.4-1.7-0.9-2.5-1.4c-2.3-1.3-4.6-3.2-6.8-4.9   c-0.4-0.3-0.8-0.2-1.2-1.2l0,0c-0.4,0-0.9-0.3-1.3-0.6c-0.2-0.2-0.5-0.2-0.7-0.4c-0.6-0.5-1.3-1-1.9-1.5c-0.3-0.3-0.6-0.5-1-0.8   c-0.1-0.1-0.1-0.1-0.2-0.1c-0.3-0.3-0.7-0.6-1-0.9c-0.4-0.3-0.7-0.7-1-1s-0.7-0.7-1-1c-1-1-2-2.1-3-3.2c-0.3-0.3-0.6-0.7-0.9-1   c-0.6-0.8-1.3-1.5-1.9-2.3c-0.3-0.4-0.6-0.8-0.9-1.2c-0.3-0.4-0.6-0.8-0.9-1.2c-0.3-0.4-0.6-0.8-0.8-1.2c-0.3-0.4-0.5-0.8-0.8-1.2   s-0.6-0.8-0.8-1.3c-0.5-0.8-1-1.6-1.5-2.4l0,0c-0.2-0.4-0.5-0.8-0.7-1.3c-0.7-1.3-1.4-2.6-2-4c-0.2-0.4-0.4-0.9-0.6-1.3   s-0.4-0.9-0.6-1.3c-0.2-0.4-0.4-0.9-0.6-1.4c-0.7-1.8-1.4-3.8-2-5.7c3.5,0.6,7,0.9,10.6,1c8,0.2,15.7-0.9,23-3.1   c-0.7-0.1-1.4-0.3-2.1-0.5c5.3,1.2,10.8,1.8,16.4,1.8c9.6,0,18.8-1.8,27.3-5.2c16.4-6.5,30-18.8,38.4-34.4   c5.8-10.8,9.1-23.2,9.1-36.4c0-0.5,0-1,0-1.5C501.4,248.6,510.4,268.2,510.4,289.9z" id="XMLID_31_"/><path class="st1" d="M489.1,231.2c-11.5,3.7-24.6,8.5-32.4,13.7c-0.9,0.6-1.8,1.2-2.7,1.7c-11.6,7-25.1,11-39.7,11   c-14.5,0-28.1-4-39.7-11c-0.6-0.4-1.2-0.7-1.8-1.1c-2.7-1.7-5.4-3.7-7.8-5.8c-9.7-8.2-17.3-18.7-21.8-30.7   c-2.6-7-4.5-14.5-4.9-22.4c-0.1-1.2-0.3-2.4-0.3-3.7v-0.5c0-13.8,4.2-26.8,10.8-37.8c5,7.4,15.8,17.6,27.7,27.3   c12.4,10.1,26,19.5,35.5,24.4c27.4,13.8,56,22,75.5,25.2c7.4,1.2,13.4,1.7,17.6,1.4C521.1,221.9,507,225.3,489.1,231.2z" id="XMLID_19_"/><path class="st1" d="M488,235.8c0,33.3-19.7,61.9-47.5,73.3c-8.5,3.5-17.7,5.4-27.3,5.4c-5.6,0-11.1-0.6-16.4-2   c-0.2,0-0.4-0.1-0.6-0.1c-13.1-3.2-25-10.1-34.4-19.5c-10.8-10.8-18.6-25-21.8-41c0-0.1-0.1-0.3-0.1-0.4c-1-5-1.5-10.3-1.5-15.7   c0-0.5,0-1,0-1.5c10.3,6.2,22.2,9.8,34.8,10.1c0.6,0.4,1.2,0.8,1.8,1.2c0.2,0.1,0.3,0.2,0.5,0.3c3.4,2.2,7,4,10.7,5.7   c8.6,3.7,18.1,5.7,27.9,5.7c9.3,0,18.2-1.7,26.4-5c4.4-1.7,8.7-3.9,12.6-6.6c0.9-0.6,1.8-1.2,2.7-1.8c6.9-4.9,18-9.5,28.4-13.2   c1.2-0.4,2.4-0.8,3.6-1.2c0.1,1.5,0.2,3.2,0.2,4.8C488,234.6,488,235.3,488,235.8z" id="XMLID_22_"/><rect class="st1" height="38.9" id="XMLID_3_" width="38.6" x="481.2" y="225"/><path class="st1" d="M681.9,135c-0.1,0.4-0.4,0.7-0.6,1.1c-13,26.4-23.4,42.8-49.4,44.8v-26.3c4-0.6,6.1-1.1,1-0.4   c-0.1,0-0.1,0-0.2,0c0.8-0.1,1.6-0.3,2.6-0.5C658.4,149.2,660.6,146.4,681.9,135z" id="XMLID_16_"/><path class="st1" d="M691.6,165.8c-0.1,0.3-0.2,0.7-0.5,1c-16.3,18.9-25.9,34.3-50.5,44.3v-30.2   c7.4-3.7,5.6-3,0.8-0.4c-0.1,0,5.7-2.9,5.6-2.9c0,0-0.2,0.1,0.8-0.1C670.8,173.9,669.4,174.6,691.6,165.8z" id="XMLID_6_"/></g></svg>
